<svg width="143" height="139" viewBox="0 0 143 139" fill="none" xmlns="http://www.w3.org/2000/svg">
<g id="Iconly/Bulk/Document">
<g id="Document">
<path id="Path" opacity="0.4" d="M96.5964 12H46.6596C28.5463 12 18 22.3092 18 39.9738V99.8017C18 117.756 28.5463 127.833 46.6596 127.833H96.5964C115.002 127.833 125.25 117.756 125.25 99.8017V39.9738C125.25 22.3092 115.002 12 96.5964 12Z" fill="#130F26"/>
<path id="Combined Shape" fill-rule="evenodd" clip-rule="evenodd" d="M48.2683 38.9313V38.9892C45.7003 38.9892 43.6208 41.0163 43.6208 43.5067C43.6208 45.9971 45.7003 48.0242 48.2683 48.0242H66.0778C68.6458 48.0242 70.7313 45.9971 70.7313 43.443C70.7313 40.9583 68.6458 38.9313 66.0778 38.9313H48.2683ZM94.9817 74.2025H48.2683C45.7003 74.2025 43.6208 72.1754 43.6208 69.685C43.6208 67.1946 45.7003 65.1617 48.2683 65.1617H94.9817C97.5438 65.1617 99.6292 67.1946 99.6292 69.685C99.6292 72.1754 97.5438 74.2025 94.9817 74.2025ZM94.9817 100.67H48.2683C46.4808 100.902 44.7529 100.033 43.7996 98.5854C42.8463 97.0796 42.8463 95.1683 43.7996 93.7204C44.7529 92.2146 46.4808 91.4038 48.2683 91.5775H94.9817C97.3591 91.8092 99.1525 93.7783 99.1525 96.1529C99.1525 98.4638 97.3591 100.439 94.9817 100.67Z" fill="#130F26"/>
</g>
</g>
</svg>
