<svg width="35" height="37" viewBox="0 0 35 37" fill="none" xmlns="http://www.w3.org/2000/svg">
<g id="Iconly/Bulk/Delete">
<g id="Delete">
<path id="Fill 1" opacity="0.4" d="M28.6465 14.6281C28.6465 14.7329 27.8692 25.1249 27.4253 29.4985C27.1473 32.1824 25.5106 33.8104 23.0555 33.8566C21.1692 33.9013 19.3225 33.9167 17.5057 33.9167C15.5768 33.9167 13.6904 33.9013 11.8594 33.8566C9.48658 33.7965 7.84843 32.1362 7.58463 29.4985C7.12793 25.1095 6.36488 14.7329 6.3507 14.6281C6.33652 14.312 6.43296 14.0114 6.62869 13.7678C6.82158 13.5428 7.09957 13.4071 7.39174 13.4071H27.6196C27.9104 13.4071 28.1742 13.5428 28.3827 13.7678C28.577 14.0114 28.6748 14.312 28.6465 14.6281Z" fill="#130F26"/>
<path id="Fill 4" d="M30.625 9.21437C30.625 8.58076 30.1527 8.08437 29.5854 8.08437H25.3333C24.4681 8.08437 23.7164 7.4338 23.5235 6.51655L23.2853 5.39271C22.952 4.03455 21.8017 3.08337 20.5111 3.08337H14.4904C13.1855 3.08337 12.0466 4.03455 11.7005 5.46671L11.4779 6.51809C11.2836 7.4338 10.5319 8.08437 9.66812 8.08437H5.41604C4.8473 8.08437 4.375 8.58076 4.375 9.21437V9.80018C4.375 10.4184 4.8473 10.9302 5.41604 10.9302H29.5854C30.1527 10.9302 30.625 10.4184 30.625 9.80018V9.21437Z" fill="#130F26"/>
</g>
</g>
</svg>
