<svg width="35" height="37" viewBox="0 0 35 37" fill="none" xmlns="http://www.w3.org/2000/svg">
<g id="Iconly/Bulk/Edit">
<g id="Edit">
<path id="Fill 1" opacity="0.4" d="M29.1558 29.2196H20.8517C20.0415 29.2196 19.3825 29.9272 19.3825 30.7973C19.3825 31.669 20.0415 32.375 20.8517 32.375H29.1558C29.966 32.375 30.625 31.669 30.625 30.7973C30.625 29.9272 29.966 29.2196 29.1558 29.2196Z" fill="#130F26"/>
<path id="Fill 3" d="M15.034 10.6435L22.903 17.3653C23.0928 17.526 23.1252 17.821 22.977 18.0265L13.6482 30.8768C13.0617 31.6707 12.1975 32.1198 11.2716 32.1363L6.1789 32.2026C5.90729 32.2059 5.66963 32.0071 5.6079 31.722L4.45048 26.4023C4.24985 25.4245 4.45048 24.4136 5.03691 23.6347L14.4121 10.723C14.5633 10.5159 14.8426 10.4794 15.034 10.6435Z" fill="#130F26"/>
<path id="Fill 5" opacity="0.4" d="M26.4259 13.3592L24.9089 15.3612C24.7561 15.565 24.4814 15.5982 24.2916 15.4358C22.4474 13.858 17.7251 9.80939 16.4149 8.68743C16.2235 8.5217 16.1973 8.22671 16.3516 8.02122L17.8146 6.10046C19.1418 4.29406 21.4566 4.12834 23.324 5.70272L25.4691 7.50913C26.3487 8.23832 26.9351 9.19952 27.1357 10.2104C27.3672 11.3225 27.1203 12.4146 26.4259 13.3592Z" fill="#130F26"/>
</g>
</g>
</svg>
