<svg width="70" height="69" viewBox="0 0 70 69" fill="none" xmlns="http://www.w3.org/2000/svg">
<g id="Iconly/Bulk/Home">
<g id="Home">
<path id="Home_2" d="M26.6692 59.7486V50.9313C26.6692 48.697 28.5124 46.8818 30.7954 46.8677H39.1785C41.4717 46.8677 43.3308 48.6871 43.3308 50.9313V59.723C43.3307 61.6609 44.9284 63.2359 46.9086 63.2499H52.6278C55.2989 63.2567 57.863 62.223 59.7542 60.377C61.6455 58.531 62.7083 56.0244 62.7083 53.4104V28.3643C62.7083 26.2527 61.7519 24.2498 60.0968 22.8951L40.667 7.68852C37.2707 5.02873 32.4198 5.11465 29.1241 7.89298L10.1121 22.8951C8.37883 24.2099 7.34287 26.2187 7.29167 28.3643V53.3848C7.29167 58.8332 11.8049 63.2499 17.3722 63.2499H22.9609C23.9143 63.2567 24.831 62.8908 25.5076 62.2335C26.1843 61.5761 26.5648 60.6816 26.5648 59.7486H26.6692Z" fill="#130F26"/>
</g>
</g>
</svg>
