<svg width="164" height="169" viewBox="0 0 164 169" fill="none" xmlns="http://www.w3.org/2000/svg">
<g id="Iconly/Bulk/Add User">
<g id="Add User">
<path id="Fill 1" opacity="0.4" d="M144.19 67.5145H135.969V59.2318C135.969 55.6957 133.217 52.8125 129.826 52.8125C126.442 52.8125 123.683 55.6957 123.683 59.2318V67.5145H115.476C112.085 67.5145 109.333 70.3977 109.333 73.9338C109.333 77.4699 112.085 80.3531 115.476 80.3531H123.683V88.6432C123.683 92.1793 126.442 95.0625 129.826 95.0625C133.217 95.0625 135.969 92.1793 135.969 88.6432V80.3531H144.19C147.574 80.3531 150.333 77.4699 150.333 73.9338C150.333 70.3977 147.574 67.5145 144.19 67.5145" fill="#130F26"/>
<path id="Fill 4" d="M64.9167 105.734C37.2705 105.734 13.6667 110.289 13.6667 128.486C13.6667 146.677 37.1269 151.396 64.9167 151.396C92.556 151.396 116.167 146.841 116.167 128.644C116.167 110.446 92.7064 105.734 64.9167 105.734" fill="#130F26"/>
<path id="Fill 7" opacity="0.4" d="M64.9167 88.4026C83.7396 88.4026 98.828 72.6537 98.828 53.0069C98.828 33.3601 83.7396 17.6042 64.9167 17.6042C46.0938 17.6042 31.0053 33.3601 31.0053 53.0069C31.0053 72.6537 46.0938 88.4026 64.9167 88.4026" fill="#130F26"/>
</g>
</g>
</svg>
